<mxfile host="app.diagrams.net" agent="Mozilla/5.0 (Macintosh; Intel Mac OS X 10_15_7) AppleWebKit/537.36 (KHTML, like Gecko) Chrome/133.0.0.0 Safari/537.36" version="26.0.14" pages="3">
  <diagram name="Page-1" id="07IY5MYAFFa9t--gmtzg">
    <mxGraphModel dx="463" dy="726" grid="1" gridSize="10" guides="1" tooltips="1" connect="1" arrows="1" fold="1" page="1" pageScale="1" pageWidth="850" pageHeight="1100" math="0" shadow="0">
      <root>
        <mxCell id="0" />
        <mxCell id="1" parent="0" />
        <mxCell id="9zB53JTmkrrgmTLj4WiK-2" value="wm" style="rounded=0;whiteSpace=wrap;html=1;imageWidth=24;" vertex="1" parent="1">
          <mxGeometry x="400" y="420" width="120" height="60" as="geometry" />
        </mxCell>
        <mxCell id="9zB53JTmkrrgmTLj4WiK-3" value="y" style="rounded=0;whiteSpace=wrap;html=1;imageWidth=24;" vertex="1" parent="1">
          <mxGeometry x="400" y="310" width="120" height="60" as="geometry" />
        </mxCell>
        <mxCell id="9zB53JTmkrrgmTLj4WiK-4" value="wx" style="rounded=0;whiteSpace=wrap;html=1;imageWidth=24;" vertex="1" parent="1">
          <mxGeometry x="250" y="210" width="120" height="60" as="geometry" />
        </mxCell>
        <mxCell id="9zB53JTmkrrgmTLj4WiK-6" value="x" style="rounded=0;whiteSpace=wrap;html=1;imageWidth=24;" vertex="1" parent="1">
          <mxGeometry x="250" y="420" width="110" height="60" as="geometry" />
        </mxCell>
        <mxCell id="9zB53JTmkrrgmTLj4WiK-11" style="edgeStyle=orthogonalEdgeStyle;rounded=0;orthogonalLoop=1;jettySize=auto;html=1;entryX=0;entryY=0.5;entryDx=0;entryDy=0;" edge="1" parent="1" source="9zB53JTmkrrgmTLj4WiK-7" target="9zB53JTmkrrgmTLj4WiK-3">
          <mxGeometry relative="1" as="geometry" />
        </mxCell>
        <mxCell id="9zB53JTmkrrgmTLj4WiK-20" value="b3" style="edgeLabel;html=1;align=center;verticalAlign=middle;resizable=0;points=[];" vertex="1" connectable="0" parent="9zB53JTmkrrgmTLj4WiK-11">
          <mxGeometry x="0.22" y="1" relative="1" as="geometry">
            <mxPoint as="offset" />
          </mxGeometry>
        </mxCell>
        <mxCell id="9zB53JTmkrrgmTLj4WiK-7" value="m" style="rounded=0;whiteSpace=wrap;html=1;imageWidth=24;" vertex="1" parent="1">
          <mxGeometry x="250" y="310" width="120" height="60" as="geometry" />
        </mxCell>
        <mxCell id="9zB53JTmkrrgmTLj4WiK-10" value="" style="endArrow=classic;html=1;rounded=0;exitX=0.5;exitY=1;exitDx=0;exitDy=0;entryX=0.5;entryY=0;entryDx=0;entryDy=0;" edge="1" parent="1" source="9zB53JTmkrrgmTLj4WiK-4" target="9zB53JTmkrrgmTLj4WiK-7">
          <mxGeometry width="50" height="50" relative="1" as="geometry">
            <mxPoint x="270" y="400" as="sourcePoint" />
            <mxPoint x="320" y="350" as="targetPoint" />
          </mxGeometry>
        </mxCell>
        <mxCell id="9zB53JTmkrrgmTLj4WiK-17" value="a2" style="edgeLabel;html=1;align=center;verticalAlign=middle;resizable=0;points=[];" vertex="1" connectable="0" parent="9zB53JTmkrrgmTLj4WiK-10">
          <mxGeometry x="-0.222" y="2" relative="1" as="geometry">
            <mxPoint as="offset" />
          </mxGeometry>
        </mxCell>
        <mxCell id="9zB53JTmkrrgmTLj4WiK-12" value="" style="endArrow=classic;html=1;rounded=0;exitX=0.5;exitY=0;exitDx=0;exitDy=0;entryX=0.5;entryY=1;entryDx=0;entryDy=0;" edge="1" parent="1" source="9zB53JTmkrrgmTLj4WiK-2" target="9zB53JTmkrrgmTLj4WiK-3">
          <mxGeometry width="50" height="50" relative="1" as="geometry">
            <mxPoint x="270" y="400" as="sourcePoint" />
            <mxPoint x="320" y="350" as="targetPoint" />
          </mxGeometry>
        </mxCell>
        <mxCell id="9zB53JTmkrrgmTLj4WiK-21" value="b4" style="edgeLabel;html=1;align=center;verticalAlign=middle;resizable=0;points=[];" vertex="1" connectable="0" parent="9zB53JTmkrrgmTLj4WiK-12">
          <mxGeometry x="-0.1188" y="2" relative="1" as="geometry">
            <mxPoint as="offset" />
          </mxGeometry>
        </mxCell>
        <mxCell id="9zB53JTmkrrgmTLj4WiK-13" value="" style="endArrow=classic;html=1;rounded=0;exitX=1;exitY=0.5;exitDx=0;exitDy=0;entryX=0.5;entryY=0;entryDx=0;entryDy=0;" edge="1" parent="1" source="9zB53JTmkrrgmTLj4WiK-4" target="9zB53JTmkrrgmTLj4WiK-3">
          <mxGeometry width="50" height="50" relative="1" as="geometry">
            <mxPoint x="270" y="400" as="sourcePoint" />
            <mxPoint x="320" y="350" as="targetPoint" />
          </mxGeometry>
        </mxCell>
        <mxCell id="9zB53JTmkrrgmTLj4WiK-19" value="b2" style="edgeLabel;html=1;align=center;verticalAlign=middle;resizable=0;points=[];" vertex="1" connectable="0" parent="9zB53JTmkrrgmTLj4WiK-13">
          <mxGeometry x="-0.2357" y="2" relative="1" as="geometry">
            <mxPoint as="offset" />
          </mxGeometry>
        </mxCell>
        <mxCell id="9zB53JTmkrrgmTLj4WiK-14" value="" style="endArrow=classic;html=1;rounded=0;exitX=0.5;exitY=0;exitDx=0;exitDy=0;entryX=0.5;entryY=1;entryDx=0;entryDy=0;" edge="1" parent="1" source="9zB53JTmkrrgmTLj4WiK-6" target="9zB53JTmkrrgmTLj4WiK-3">
          <mxGeometry width="50" height="50" relative="1" as="geometry">
            <mxPoint x="270" y="400" as="sourcePoint" />
            <mxPoint x="320" y="350" as="targetPoint" />
          </mxGeometry>
        </mxCell>
        <mxCell id="9zB53JTmkrrgmTLj4WiK-18" value="b1" style="edgeLabel;html=1;align=center;verticalAlign=middle;resizable=0;points=[];" vertex="1" connectable="0" parent="9zB53JTmkrrgmTLj4WiK-14">
          <mxGeometry x="0.155" relative="1" as="geometry">
            <mxPoint as="offset" />
          </mxGeometry>
        </mxCell>
        <mxCell id="9zB53JTmkrrgmTLj4WiK-15" value="" style="endArrow=classic;html=1;rounded=0;entryX=0.5;entryY=1;entryDx=0;entryDy=0;exitX=0.5;exitY=0;exitDx=0;exitDy=0;" edge="1" parent="1" source="9zB53JTmkrrgmTLj4WiK-6" target="9zB53JTmkrrgmTLj4WiK-7">
          <mxGeometry width="50" height="50" relative="1" as="geometry">
            <mxPoint x="210" y="440" as="sourcePoint" />
            <mxPoint x="320" y="350" as="targetPoint" />
          </mxGeometry>
        </mxCell>
        <mxCell id="9zB53JTmkrrgmTLj4WiK-16" value="a1" style="edgeLabel;html=1;align=center;verticalAlign=middle;resizable=0;points=[];" vertex="1" connectable="0" parent="9zB53JTmkrrgmTLj4WiK-15">
          <mxGeometry x="0.0161" y="1" relative="1" as="geometry">
            <mxPoint as="offset" />
          </mxGeometry>
        </mxCell>
      </root>
    </mxGraphModel>
  </diagram>
  <diagram id="vPVRo0i91HHLM3_u0hbi" name="Page-2">
    <mxGraphModel dx="463" dy="726" grid="1" gridSize="10" guides="1" tooltips="1" connect="1" arrows="1" fold="1" page="1" pageScale="1" pageWidth="850" pageHeight="1100" math="0" shadow="0">
      <root>
        <mxCell id="0" />
        <mxCell id="1" parent="0" />
        <mxCell id="NK4PcYY2lZn7d_9FAw3C-7" style="edgeStyle=orthogonalEdgeStyle;rounded=0;orthogonalLoop=1;jettySize=auto;html=1;entryX=0.5;entryY=0;entryDx=0;entryDy=0;" edge="1" parent="1" source="NK4PcYY2lZn7d_9FAw3C-1" target="NK4PcYY2lZn7d_9FAw3C-2">
          <mxGeometry relative="1" as="geometry" />
        </mxCell>
        <mxCell id="NK4PcYY2lZn7d_9FAw3C-8" value="a1" style="edgeLabel;html=1;align=center;verticalAlign=middle;resizable=0;points=[];" vertex="1" connectable="0" parent="NK4PcYY2lZn7d_9FAw3C-7">
          <mxGeometry x="-0.04" y="-2" relative="1" as="geometry">
            <mxPoint as="offset" />
          </mxGeometry>
        </mxCell>
        <mxCell id="NK4PcYY2lZn7d_9FAw3C-1" value="w1" style="rounded=0;whiteSpace=wrap;html=1;" vertex="1" parent="1">
          <mxGeometry x="190" y="370" width="60" height="30" as="geometry" />
        </mxCell>
        <mxCell id="NK4PcYY2lZn7d_9FAw3C-2" value="m" style="rounded=0;whiteSpace=wrap;html=1;" vertex="1" parent="1">
          <mxGeometry x="190" y="430" width="60" height="30" as="geometry" />
        </mxCell>
        <mxCell id="NK4PcYY2lZn7d_9FAw3C-3" value="mx" style="rounded=0;whiteSpace=wrap;html=1;" vertex="1" parent="1">
          <mxGeometry x="190" y="470" width="60" height="30" as="geometry" />
        </mxCell>
        <mxCell id="NK4PcYY2lZn7d_9FAw3C-4" value="w1mx" style="rounded=0;whiteSpace=wrap;html=1;" vertex="1" parent="1">
          <mxGeometry x="190" y="510" width="60" height="30" as="geometry" />
        </mxCell>
        <mxCell id="NK4PcYY2lZn7d_9FAw3C-5" value="x" style="rounded=0;whiteSpace=wrap;html=1;" vertex="1" parent="1">
          <mxGeometry x="190" y="550" width="60" height="30" as="geometry" />
        </mxCell>
        <mxCell id="NK4PcYY2lZn7d_9FAw3C-6" value="y" style="rounded=0;whiteSpace=wrap;html=1;" vertex="1" parent="1">
          <mxGeometry x="320" y="470" width="60" height="30" as="geometry" />
        </mxCell>
        <mxCell id="NK4PcYY2lZn7d_9FAw3C-9" value="" style="endArrow=classic;html=1;rounded=0;exitX=1;exitY=0.5;exitDx=0;exitDy=0;entryX=0;entryY=0.5;entryDx=0;entryDy=0;" edge="1" parent="1" source="NK4PcYY2lZn7d_9FAw3C-2" target="NK4PcYY2lZn7d_9FAw3C-6">
          <mxGeometry width="50" height="50" relative="1" as="geometry">
            <mxPoint x="220" y="400" as="sourcePoint" />
            <mxPoint x="270" y="350" as="targetPoint" />
          </mxGeometry>
        </mxCell>
        <mxCell id="NK4PcYY2lZn7d_9FAw3C-15" value="b2" style="edgeLabel;html=1;align=center;verticalAlign=middle;resizable=0;points=[];" vertex="1" connectable="0" parent="NK4PcYY2lZn7d_9FAw3C-9">
          <mxGeometry x="-0.0985" y="-1" relative="1" as="geometry">
            <mxPoint as="offset" />
          </mxGeometry>
        </mxCell>
        <mxCell id="NK4PcYY2lZn7d_9FAw3C-10" value="" style="endArrow=classic;html=1;rounded=0;exitX=1;exitY=0.5;exitDx=0;exitDy=0;entryX=0;entryY=0.5;entryDx=0;entryDy=0;" edge="1" parent="1" source="NK4PcYY2lZn7d_9FAw3C-5" target="NK4PcYY2lZn7d_9FAw3C-6">
          <mxGeometry width="50" height="50" relative="1" as="geometry">
            <mxPoint x="220" y="400" as="sourcePoint" />
            <mxPoint x="270" y="350" as="targetPoint" />
          </mxGeometry>
        </mxCell>
        <mxCell id="NK4PcYY2lZn7d_9FAw3C-16" value="b1" style="edgeLabel;html=1;align=center;verticalAlign=middle;resizable=0;points=[];" vertex="1" connectable="0" parent="NK4PcYY2lZn7d_9FAw3C-10">
          <mxGeometry x="-0.1363" y="-2" relative="1" as="geometry">
            <mxPoint as="offset" />
          </mxGeometry>
        </mxCell>
        <mxCell id="NK4PcYY2lZn7d_9FAw3C-11" value="" style="endArrow=classic;html=1;rounded=0;exitX=1;exitY=0.5;exitDx=0;exitDy=0;entryX=0;entryY=0.5;entryDx=0;entryDy=0;" edge="1" parent="1" source="NK4PcYY2lZn7d_9FAw3C-4" target="NK4PcYY2lZn7d_9FAw3C-6">
          <mxGeometry width="50" height="50" relative="1" as="geometry">
            <mxPoint x="220" y="400" as="sourcePoint" />
            <mxPoint x="270" y="350" as="targetPoint" />
          </mxGeometry>
        </mxCell>
        <mxCell id="NK4PcYY2lZn7d_9FAw3C-18" value="b4" style="edgeLabel;html=1;align=center;verticalAlign=middle;resizable=0;points=[];" vertex="1" connectable="0" parent="NK4PcYY2lZn7d_9FAw3C-11">
          <mxGeometry x="-0.3354" y="-1" relative="1" as="geometry">
            <mxPoint y="1" as="offset" />
          </mxGeometry>
        </mxCell>
        <mxCell id="NK4PcYY2lZn7d_9FAw3C-12" value="" style="endArrow=classic;html=1;rounded=0;exitX=1;exitY=0.5;exitDx=0;exitDy=0;entryX=0;entryY=0.5;entryDx=0;entryDy=0;" edge="1" parent="1" source="NK4PcYY2lZn7d_9FAw3C-3" target="NK4PcYY2lZn7d_9FAw3C-6">
          <mxGeometry width="50" height="50" relative="1" as="geometry">
            <mxPoint x="220" y="400" as="sourcePoint" />
            <mxPoint x="270" y="350" as="targetPoint" />
          </mxGeometry>
        </mxCell>
        <mxCell id="NK4PcYY2lZn7d_9FAw3C-17" value="b3" style="edgeLabel;html=1;align=center;verticalAlign=middle;resizable=0;points=[];" vertex="1" connectable="0" parent="NK4PcYY2lZn7d_9FAw3C-12">
          <mxGeometry x="-0.3429" y="1" relative="1" as="geometry">
            <mxPoint as="offset" />
          </mxGeometry>
        </mxCell>
        <mxCell id="NK4PcYY2lZn7d_9FAw3C-13" value="" style="endArrow=classic;html=1;rounded=0;exitX=1;exitY=0.5;exitDx=0;exitDy=0;entryX=0;entryY=0.5;entryDx=0;entryDy=0;" edge="1" parent="1" source="NK4PcYY2lZn7d_9FAw3C-1" target="NK4PcYY2lZn7d_9FAw3C-6">
          <mxGeometry width="50" height="50" relative="1" as="geometry">
            <mxPoint x="220" y="400" as="sourcePoint" />
            <mxPoint x="270" y="350" as="targetPoint" />
          </mxGeometry>
        </mxCell>
        <mxCell id="NK4PcYY2lZn7d_9FAw3C-14" value="b5" style="edgeLabel;html=1;align=center;verticalAlign=middle;resizable=0;points=[];" vertex="1" connectable="0" parent="NK4PcYY2lZn7d_9FAw3C-13">
          <mxGeometry relative="1" as="geometry">
            <mxPoint as="offset" />
          </mxGeometry>
        </mxCell>
      </root>
    </mxGraphModel>
  </diagram>
  <diagram id="h3JB_7EjkJeoon9BSGih" name="Page-3">
    <mxGraphModel dx="463" dy="726" grid="1" gridSize="10" guides="1" tooltips="1" connect="1" arrows="1" fold="1" page="1" pageScale="1" pageWidth="850" pageHeight="1100" math="0" shadow="0">
      <root>
        <mxCell id="0" />
        <mxCell id="1" parent="0" />
        <mxCell id="mg0GagGOMzjOKxR7TBAU-1" value="y" style="rounded=0;whiteSpace=wrap;html=1;" vertex="1" parent="1">
          <mxGeometry x="340" y="660" width="60" height="40" as="geometry" />
        </mxCell>
        <mxCell id="mg0GagGOMzjOKxR7TBAU-2" value="m" style="rounded=0;whiteSpace=wrap;html=1;" vertex="1" parent="1">
          <mxGeometry x="250" y="510" width="60" height="40" as="geometry" />
        </mxCell>
        <mxCell id="mg0GagGOMzjOKxR7TBAU-8" style="edgeStyle=orthogonalEdgeStyle;rounded=0;orthogonalLoop=1;jettySize=auto;html=1;entryX=0;entryY=0.5;entryDx=0;entryDy=0;" edge="1" parent="1" source="mg0GagGOMzjOKxR7TBAU-3" target="mg0GagGOMzjOKxR7TBAU-1">
          <mxGeometry relative="1" as="geometry" />
        </mxCell>
        <mxCell id="mg0GagGOMzjOKxR7TBAU-24" value="b4" style="edgeLabel;html=1;align=center;verticalAlign=middle;resizable=0;points=[];" vertex="1" connectable="0" parent="mg0GagGOMzjOKxR7TBAU-8">
          <mxGeometry x="-0.1867" y="2" relative="1" as="geometry">
            <mxPoint as="offset" />
          </mxGeometry>
        </mxCell>
        <mxCell id="mg0GagGOMzjOKxR7TBAU-3" value="wx&lt;sup&gt;2&lt;/sup&gt;" style="rounded=0;whiteSpace=wrap;html=1;" vertex="1" parent="1">
          <mxGeometry x="130" y="660" width="60" height="40" as="geometry" />
        </mxCell>
        <mxCell id="mg0GagGOMzjOKxR7TBAU-4" value="wx" style="rounded=0;whiteSpace=wrap;html=1;" vertex="1" parent="1">
          <mxGeometry x="130" y="610" width="60" height="40" as="geometry" />
        </mxCell>
        <mxCell id="mg0GagGOMzjOKxR7TBAU-5" value="x&lt;sup&gt;2&lt;/sup&gt;" style="rounded=0;whiteSpace=wrap;html=1;" vertex="1" parent="1">
          <mxGeometry x="130" y="560" width="60" height="40" as="geometry" />
        </mxCell>
        <mxCell id="mg0GagGOMzjOKxR7TBAU-7" style="edgeStyle=orthogonalEdgeStyle;rounded=0;orthogonalLoop=1;jettySize=auto;html=1;entryX=0;entryY=0.5;entryDx=0;entryDy=0;" edge="1" parent="1" source="mg0GagGOMzjOKxR7TBAU-6" target="mg0GagGOMzjOKxR7TBAU-2">
          <mxGeometry relative="1" as="geometry" />
        </mxCell>
        <mxCell id="mg0GagGOMzjOKxR7TBAU-17" value="a1" style="edgeLabel;html=1;align=center;verticalAlign=middle;resizable=0;points=[];" vertex="1" connectable="0" parent="mg0GagGOMzjOKxR7TBAU-7">
          <mxGeometry x="-0.1333" y="2" relative="1" as="geometry">
            <mxPoint as="offset" />
          </mxGeometry>
        </mxCell>
        <mxCell id="mg0GagGOMzjOKxR7TBAU-6" value="x" style="rounded=0;whiteSpace=wrap;html=1;" vertex="1" parent="1">
          <mxGeometry x="130" y="510" width="60" height="40" as="geometry" />
        </mxCell>
        <mxCell id="mg0GagGOMzjOKxR7TBAU-10" value="" style="endArrow=classic;html=1;rounded=0;exitX=1;exitY=0.5;exitDx=0;exitDy=0;entryX=0;entryY=0.5;entryDx=0;entryDy=0;" edge="1" parent="1" source="mg0GagGOMzjOKxR7TBAU-3" target="mg0GagGOMzjOKxR7TBAU-2">
          <mxGeometry width="50" height="50" relative="1" as="geometry">
            <mxPoint x="220" y="530" as="sourcePoint" />
            <mxPoint x="270" y="480" as="targetPoint" />
          </mxGeometry>
        </mxCell>
        <mxCell id="mg0GagGOMzjOKxR7TBAU-20" value="a4" style="edgeLabel;html=1;align=center;verticalAlign=middle;resizable=0;points=[];" vertex="1" connectable="0" parent="mg0GagGOMzjOKxR7TBAU-10">
          <mxGeometry x="-0.2023" y="-2" relative="1" as="geometry">
            <mxPoint as="offset" />
          </mxGeometry>
        </mxCell>
        <mxCell id="mg0GagGOMzjOKxR7TBAU-11" value="" style="endArrow=classic;html=1;rounded=0;exitX=1;exitY=0.5;exitDx=0;exitDy=0;entryX=0;entryY=0.5;entryDx=0;entryDy=0;" edge="1" parent="1" source="mg0GagGOMzjOKxR7TBAU-4" target="mg0GagGOMzjOKxR7TBAU-2">
          <mxGeometry width="50" height="50" relative="1" as="geometry">
            <mxPoint x="220" y="530" as="sourcePoint" />
            <mxPoint x="270" y="480" as="targetPoint" />
          </mxGeometry>
        </mxCell>
        <mxCell id="mg0GagGOMzjOKxR7TBAU-19" value="a3" style="edgeLabel;html=1;align=center;verticalAlign=middle;resizable=0;points=[];" vertex="1" connectable="0" parent="mg0GagGOMzjOKxR7TBAU-11">
          <mxGeometry x="-0.0559" y="2" relative="1" as="geometry">
            <mxPoint as="offset" />
          </mxGeometry>
        </mxCell>
        <mxCell id="mg0GagGOMzjOKxR7TBAU-12" value="" style="endArrow=classic;html=1;rounded=0;exitX=1;exitY=0.5;exitDx=0;exitDy=0;entryX=0;entryY=0.5;entryDx=0;entryDy=0;" edge="1" parent="1" source="mg0GagGOMzjOKxR7TBAU-5" target="mg0GagGOMzjOKxR7TBAU-2">
          <mxGeometry width="50" height="50" relative="1" as="geometry">
            <mxPoint x="220" y="530" as="sourcePoint" />
            <mxPoint x="270" y="480" as="targetPoint" />
          </mxGeometry>
        </mxCell>
        <mxCell id="mg0GagGOMzjOKxR7TBAU-18" value="a2" style="edgeLabel;html=1;align=center;verticalAlign=middle;resizable=0;points=[];" vertex="1" connectable="0" parent="mg0GagGOMzjOKxR7TBAU-12">
          <mxGeometry x="-0.4" relative="1" as="geometry">
            <mxPoint as="offset" />
          </mxGeometry>
        </mxCell>
        <mxCell id="mg0GagGOMzjOKxR7TBAU-13" value="" style="endArrow=classic;html=1;rounded=0;exitX=1;exitY=0.5;exitDx=0;exitDy=0;entryX=0;entryY=0.5;entryDx=0;entryDy=0;" edge="1" parent="1" source="mg0GagGOMzjOKxR7TBAU-4" target="mg0GagGOMzjOKxR7TBAU-1">
          <mxGeometry width="50" height="50" relative="1" as="geometry">
            <mxPoint x="220" y="530" as="sourcePoint" />
            <mxPoint x="270" y="480" as="targetPoint" />
          </mxGeometry>
        </mxCell>
        <mxCell id="mg0GagGOMzjOKxR7TBAU-23" value="b3" style="edgeLabel;html=1;align=center;verticalAlign=middle;resizable=0;points=[];" vertex="1" connectable="0" parent="mg0GagGOMzjOKxR7TBAU-13">
          <mxGeometry x="-0.276" y="-1" relative="1" as="geometry">
            <mxPoint as="offset" />
          </mxGeometry>
        </mxCell>
        <mxCell id="mg0GagGOMzjOKxR7TBAU-14" value="" style="endArrow=classic;html=1;rounded=0;exitX=1;exitY=0.5;exitDx=0;exitDy=0;entryX=0;entryY=0.5;entryDx=0;entryDy=0;" edge="1" parent="1" source="mg0GagGOMzjOKxR7TBAU-5" target="mg0GagGOMzjOKxR7TBAU-1">
          <mxGeometry width="50" height="50" relative="1" as="geometry">
            <mxPoint x="220" y="530" as="sourcePoint" />
            <mxPoint x="270" y="480" as="targetPoint" />
          </mxGeometry>
        </mxCell>
        <mxCell id="mg0GagGOMzjOKxR7TBAU-22" value="b2" style="edgeLabel;html=1;align=center;verticalAlign=middle;resizable=0;points=[];" vertex="1" connectable="0" parent="mg0GagGOMzjOKxR7TBAU-14">
          <mxGeometry x="-0.1754" relative="1" as="geometry">
            <mxPoint as="offset" />
          </mxGeometry>
        </mxCell>
        <mxCell id="mg0GagGOMzjOKxR7TBAU-15" value="" style="endArrow=classic;html=1;rounded=0;exitX=1;exitY=0.5;exitDx=0;exitDy=0;entryX=0;entryY=0.5;entryDx=0;entryDy=0;" edge="1" parent="1" source="mg0GagGOMzjOKxR7TBAU-6" target="mg0GagGOMzjOKxR7TBAU-1">
          <mxGeometry width="50" height="50" relative="1" as="geometry">
            <mxPoint x="220" y="530" as="sourcePoint" />
            <mxPoint x="270" y="480" as="targetPoint" />
          </mxGeometry>
        </mxCell>
        <mxCell id="mg0GagGOMzjOKxR7TBAU-21" value="b1" style="edgeLabel;html=1;align=center;verticalAlign=middle;resizable=0;points=[];" vertex="1" connectable="0" parent="mg0GagGOMzjOKxR7TBAU-15">
          <mxGeometry x="-0.16" y="1" relative="1" as="geometry">
            <mxPoint as="offset" />
          </mxGeometry>
        </mxCell>
        <mxCell id="mg0GagGOMzjOKxR7TBAU-16" value="" style="endArrow=classic;html=1;rounded=0;exitX=1;exitY=0.5;exitDx=0;exitDy=0;entryX=0.5;entryY=0;entryDx=0;entryDy=0;" edge="1" parent="1" source="mg0GagGOMzjOKxR7TBAU-2" target="mg0GagGOMzjOKxR7TBAU-1">
          <mxGeometry width="50" height="50" relative="1" as="geometry">
            <mxPoint x="220" y="530" as="sourcePoint" />
            <mxPoint x="270" y="480" as="targetPoint" />
          </mxGeometry>
        </mxCell>
        <mxCell id="mg0GagGOMzjOKxR7TBAU-25" value="b5" style="edgeLabel;html=1;align=center;verticalAlign=middle;resizable=0;points=[];" vertex="1" connectable="0" parent="mg0GagGOMzjOKxR7TBAU-16">
          <mxGeometry x="-0.1307" y="-1" relative="1" as="geometry">
            <mxPoint as="offset" />
          </mxGeometry>
        </mxCell>
      </root>
    </mxGraphModel>
  </diagram>
</mxfile>
